<svg xmlns="http://www.w3.org/2000/svg" viewBox="0 0 200 200">
  <defs>
    <linearGradient id="shellGrad" x1="0%" y1="0%" x2="100%" y2="100%">
      <stop offset="0%" style="stop-color:#4299e1;stop-opacity:1" />
      <stop offset="100%" style="stop-color:#2c5282;stop-opacity:1" />
    </linearGradient>
    <linearGradient id="shellAccent" x1="0%" y1="0%" x2="100%" y2="100%">
      <stop offset="0%" style="stop-color:#63b3ed;stop-opacity:1" />
      <stop offset="100%" style="stop-color:#4299e1;stop-opacity:1" />
    </linearGradient>
  </defs>

  <circle cx="100" cy="100" r="95" fill="#f7fafc" stroke="#e2e8f0" stroke-width="2"/>

  <ellipse cx="100" cy="105" rx="65" ry="45" fill="url(#shellGrad)"/>

  <path d="M 100 65 L 130 85 L 130 115 L 100 135 L 70 115 L 70 85 Z" fill="none" stroke="#1a365d" stroke-width="2" opacity="0.3"/>
  <path d="M 100 65 L 100 135" stroke="#1a365d" stroke-width="1.5" opacity="0.3"/>
  <path d="M 70 85 L 130 115" stroke="#1a365d" stroke-width="1.5" opacity="0.3"/>
  <path d="M 130 85 L 70 115" stroke="#1a365d" stroke-width="1.5" opacity="0.3"/>

  <ellipse cx="85" cy="85" rx="20" ry="12" fill="#ebf8ff" opacity="0.3"/>

  <ellipse cx="165" cy="110" rx="18" ry="12" fill="url(#shellAccent)"/>
  <circle cx="172" cy="107" r="3" fill="#1a365d"/>

  <ellipse cx="55" cy="130" rx="12" ry="8" fill="url(#shellAccent)"/>
  <ellipse cx="145" cy="130" rx="12" ry="8" fill="url(#shellAccent)"/>
  <ellipse cx="65" cy="85" rx="10" ry="7" fill="url(#shellAccent)"/>
  <ellipse cx="135" cy="85" rx="10" ry="7" fill="url(#shellAccent)"/>

  <ellipse cx="30" cy="110" rx="8" ry="5" fill="url(#shellAccent)"/>

  <text x="100" y="175" font-family="Arial, sans-serif" font-size="12" fill="#2c5282" text-anchor="middle" font-weight="bold">PORTABLE RESILIENCE</text>
</svg>
